<svg xmlns="http://www.w3.org/2000/svg" viewBox="0 0 117.95 133.73"><defs><style>.cls-1{isolation:isolate;}.cls-2,.cls-3{fill:#ecbe16;}.cls-3,.cls-6{mix-blend-mode:multiply;}.cls-3{opacity:0.46;}.cls-4{fill:#fcdb54;}.cls-5,.cls-6{fill:#e6851b;}.cls-6{opacity:0.34;}.cls-7{fill:#c6690c;}</style></defs><g class="cls-1"><g id="Layer_2" data-name="Layer 2"><g id="OBJECTS"><path class="cls-2" d="M103.44,52.14a27.33,27.33,0,0,0,13.15-13.09,10.62,10.62,0,0,0,1.16-4.12,4.63,4.63,0,0,0-1.57-3.79,4.88,4.88,0,0,0-4.12-.66,14.82,14.82,0,0,0-4,1.8,36.64,36.64,0,0,0,8.65-12.58c1.08-2.73,1.79-5.89.51-8.47s-4.58-4-7.56-3.64A12.8,12.8,0,0,0,102,12a38.44,38.44,0,0,0-4.93,7.63c.33-3.31.87-6.88-1.24-9.07a6.29,6.29,0,0,0-6.07-1.3c-3.82,1-6.71,4.37-8.17,8.06S79.87,25,79.63,29a29.49,29.49,0,0,0-1.1-6,5.67,5.67,0,0,0-9.22-2.88,13.81,13.81,0,0,0-3.63,4.33c-6.23,10.56-6,24.52.51,35.29A26,26,0,0,0,85.36,71.21a27.25,27.25,0,0,0,21.35-7.78A12.42,12.42,0,0,0,110,58.56a5.76,5.76,0,0,0-.93-5.51A5.06,5.06,0,0,0,103.44,52.14Z"/><path class="cls-3" d="M69.77,58.71c.93,2.09,2.69,4.44,4.92,3.94,1.36-.3,2.24-1.56,3-2.73,2.6-4,5.32-8.5,4.84-13.29A21.46,21.46,0,0,0,80,39.41L74.78,28.76c-4.71-9.61-7.9,5.82-8.25,9.35A41,41,0,0,0,69.77,58.71Z"/><path class="cls-4" d="M22.2,69.38c-5.93-2.68-11.71-6-16-10.89s-7-11.49-6-18c.37-2.38,1.34-4.88,3.39-6.17s5.3-.68,6.31,1.29A17.58,17.58,0,0,1,7.69,22.51c.51-2.24,1.57-4.52,3.53-5.72a5.12,5.12,0,0,1,6.42,1C16.52,13.31,17.12,8.19,20,4.48S28.22-1.13,32.44.72C35.72,2.16,37.81,5.51,38.66,9s.62,7.17,1.47,11.54a4.33,4.33,0,0,1,2.43-3.48,4.16,4.16,0,0,1,4.17.4c2,1.47,2.17,4.34,2,6.82a87.17,87.17,0,0,1-2.55,13.34,4.36,4.36,0,0,1,5.4-1.73,6.33,6.33,0,0,1,3.51,4.74,14.28,14.28,0,0,1-.44,6.15A32.2,32.2,0,0,1,42,65.53C35.64,69.89,27.21,71.63,22.2,69.38Z"/><path class="cls-5" d="M56.4,110.8A22.73,22.73,0,0,1,58.52,95a23.21,23.21,0,0,1,12-10.6,11.08,11.08,0,0,1,5.63-.84,5.38,5.38,0,0,1,4.31,3.28,5.44,5.44,0,0,1-1.84,5.48A26.3,26.3,0,0,1,92,81.86a10.56,10.56,0,0,1,5-.69,4.76,4.76,0,0,1,3.85,2.94,5.16,5.16,0,0,1-.66,4.2c-.76,1.27-1.85,2.3-3.15,4.35a18.58,18.58,0,0,1,14.19-4.16c2.54.35,5.26,1.49,6.18,3.87a6.07,6.07,0,0,1-.58,5,13.71,13.71,0,0,1-3.55,3.85c-4.22,3.37-9.21,5.75-15,7.84a17.75,17.75,0,0,1,10.81,3.06,4.74,4.74,0,0,1,2.18,2.64c.53,2.26-1.76,4.19-3.87,5.21-6.84,3.32-15,3.74-21.52,3.06,2.8.06,4.63,3.49,3.7,6.16s-3.82,4.33-6.62,4.5a15.6,15.6,0,0,1-8-2.14C66.21,127,58.48,119.61,56.4,110.8Z"/><path class="cls-6" d="M78.15,129.83a7.9,7.9,0,0,0,3.42.83,3.26,3.26,0,0,0,2.87-1.76c.66-1.55-.37-3.25-1.36-4.62-3.58-4.93-7.22-9.92-12-13.71-1.37-1.08-7.59-6.09-9.46-4.66-1.51,1.15,1.22,7.41,1.88,9A28.75,28.75,0,0,0,78.15,129.83Z"/><path class="cls-7" d="M13.61,121.44a.6.6,0,0,1-.08-.08,1,1,0,0,1,.1-1.41,548.92,548.92,0,0,0,91.59-102.3,1,1,0,1,1,1.64,1.13A550.56,550.56,0,0,1,14.94,121.46,1,1,0,0,1,13.61,121.44Z"/><path class="cls-7" d="M35.79,101.59a1,1,0,0,1-.32-.73A419.81,419.81,0,0,0,26.22,13a1,1,0,0,1,2-.41,421.64,421.64,0,0,1,9.29,88.23,1,1,0,0,1-1,1A1,1,0,0,1,35.79,101.59Z"/><path class="cls-7" d="M25.19,111.73a1,1,0,0,1-.32-.8,1,1,0,0,1,1.06-.93,164.15,164.15,0,0,0,79.86-15.36,1,1,0,0,1,.85,1.81A166.08,166.08,0,0,1,25.81,112,1,1,0,0,1,25.19,111.73Z"/></g></g></g></svg>