<svg xmlns="http://www.w3.org/2000/svg" xmlns:xlink="http://www.w3.org/1999/xlink" viewBox="0 0 362.45 329.59"><defs><style>.cls-1{fill:url(#linear-gradient);}.cls-2{fill:url(#linear-gradient-2);}.cls-3{fill:url(#linear-gradient-3);}.cls-4{fill:url(#linear-gradient-4);}.cls-5{fill:url(#linear-gradient-5);}.cls-6{fill:url(#linear-gradient-6);}.cls-7{fill:url(#linear-gradient-7);}.cls-8{fill:url(#linear-gradient-8);}.cls-9{fill:url(#linear-gradient-9);}.cls-10{fill:url(#linear-gradient-10);}</style><linearGradient id="linear-gradient" x1="35.56" y1="172.26" x2="372.32" y2="-30.71" gradientUnits="userSpaceOnUse"><stop offset="0" stop-color="#21409a"/><stop offset="0.5" stop-color="#d70f50"/><stop offset="1" stop-color="#990e5c"/></linearGradient><linearGradient id="linear-gradient-2" x1="0.58" y1="302.72" x2="395.37" y2="296.33" xlink:href="#linear-gradient"/><linearGradient id="linear-gradient-3" x1="0.57" y1="302.32" x2="395.36" y2="295.93" xlink:href="#linear-gradient"/><linearGradient id="linear-gradient-4" x1="0.67" y1="308.43" x2="395.46" y2="302.04" xlink:href="#linear-gradient"/><linearGradient id="linear-gradient-5" x1="0.6" y1="304.31" x2="395.4" y2="297.92" xlink:href="#linear-gradient"/><linearGradient id="linear-gradient-6" x1="0.69" y1="309.53" x2="395.48" y2="303.14" xlink:href="#linear-gradient"/><linearGradient id="linear-gradient-7" x1="0.78" y1="315.24" x2="395.57" y2="308.85" xlink:href="#linear-gradient"/><linearGradient id="linear-gradient-8" x1="0.63" y1="306.08" x2="395.42" y2="299.69" xlink:href="#linear-gradient"/><linearGradient id="linear-gradient-9" x1="0.63" y1="306.03" x2="395.42" y2="299.63" xlink:href="#linear-gradient"/><linearGradient id="linear-gradient-10" x1="0.72" y1="311.68" x2="395.51" y2="305.29" xlink:href="#linear-gradient"/></defs><g id="Layer_2" data-name="Layer 2"><g id="Layer_1-2" data-name="Layer 1"><path class="cls-1" d="M338.77,140a82.2,82.2,0,0,1-116.18.89,2.27,2.27,0,0,1-.25-.18l-94.1-88.11-.15.15-4.15-3.88-.36-.39a56.27,56.27,0,0,0-41.5-17.94,61.4,61.4,0,0,0-13.64,1.56A54.72,54.72,0,0,0,27.67,71.26c-4.78,17.85-1.3,36.19,9.55,50.31a56.28,56.28,0,0,0,45,22.2c16,0,30.49-6.14,41-17.32l.5-.76,10.72-11-10.45-10.45,47-8.92-8.92,47-9.6-9.59-8.77,9-.28.44-.67.72c-15.42,17-36.92,26.42-60.53,26.42a81.69,81.69,0,0,1-65.26-32.2C1.22,116.65-3.87,90.23,3,64.65A80.23,80.23,0,0,1,62.72,7.14C92.16.38,121.79,9.2,142.05,30.75l38.62,36.16h0l18.67,17.47h0l37.93,35.51.07.06h0l.08.06,1.33.82,1.09,1.11c.77.79,1.57,1.55,2.38,2.28a56.65,56.65,0,0,0,94.66-42.82,56.83,56.83,0,0,0-56.65-55.85H280a56.11,56.11,0,0,0-40.71,17.49L238,44.53,208.23,75.21,189.58,57.73,219.39,27l1.17-1.33A81.52,81.52,0,0,1,279.9,0h.33a82.47,82.47,0,0,1,82.21,81.05A81.62,81.62,0,0,1,338.77,140Z"/><path class="cls-2" d="M40.91,288.88H30.59v-3.72H55.71v3.72H45.34v30.2H40.91Z"/><path class="cls-3" d="M59,283.34h4.43v15.2h.1a8.2,8.2,0,0,1,3.17-3.12,9.18,9.18,0,0,1,4.53-1.26c3.27,0,8.5,2,8.5,10.42v14.5H75.28v-14c0-3.92-1.46-7.24-5.63-7.24a6.35,6.35,0,0,0-5.94,4.43,5.38,5.38,0,0,0-.3,2.11v14.7H59Z"/><path class="cls-4" d="M89.38,307.7c.1,6,3.92,8.46,8.35,8.46a16.06,16.06,0,0,0,6.74-1.26l.76,3.17a19.81,19.81,0,0,1-8.1,1.51c-7.5,0-12-4.93-12-12.28s4.33-13.14,11.42-13.14c8,0,10.07,7,10.07,11.48a16.79,16.79,0,0,1-.15,2.06Zm13-3.17c0-2.82-1.16-7.2-6.14-7.2-4.48,0-6.44,4.13-6.79,7.2Z"/><path class="cls-5" d="M151.93,301.76c0,11.68-7.09,17.87-15.75,17.87-9,0-15.25-6.95-15.25-17.21,0-10.77,6.69-17.82,15.75-17.82C145.94,284.6,151.93,291.7,151.93,301.76Zm-26.32.56c0,7.24,3.93,13.74,10.82,13.74s10.87-6.4,10.87-14.1c0-6.74-3.52-13.79-10.82-13.79S125.61,294.87,125.61,302.32Z"/><path class="cls-6" d="M157.47,301.31c0-2.52-.05-4.58-.2-6.59h3.87l.2,3.92h.16a8.39,8.39,0,0,1,7.65-4.48,7.2,7.2,0,0,1,6.89,4.89h.1a10.15,10.15,0,0,1,2.72-3.18,8.35,8.35,0,0,1,5.38-1.71c3.22,0,8,2.12,8,10.57v14.35h-4.33V305.29c0-4.68-1.71-7.5-5.29-7.5a5.73,5.73,0,0,0-5.23,4,7.38,7.38,0,0,0-.35,2.22v15.05h-4.33v-14.6c0-3.87-1.71-6.69-5.08-6.69a6,6,0,0,0-5.49,4.43,6.12,6.12,0,0,0-.35,2.16v14.7h-4.33Z"/><path class="cls-7" d="M220.43,294.72c-.1,1.76-.2,3.72-.2,6.69v14.14c0,5.59-1.11,9-3.47,11.13s-5.79,2.91-8.86,2.91a15.69,15.69,0,0,1-8.1-2l1.1-3.37a13.72,13.72,0,0,0,7.15,1.91c4.53,0,7.85-2.36,7.85-8.5V314.9h-.1a8.71,8.71,0,0,1-7.75,4.08c-6,0-10.37-5.14-10.37-11.88,0-8.26,5.39-12.94,11-12.94a8.1,8.1,0,0,1,7.6,4.23h.1l.2-3.67Zm-4.58,9.61a6.29,6.29,0,0,0-.25-2,6.38,6.38,0,0,0-6.19-4.68c-4.23,0-7.25,3.57-7.25,9.21,0,4.78,2.42,8.75,7.2,8.75a6.47,6.47,0,0,0,6.14-4.53,7.72,7.72,0,0,0,.35-2.36Z"/><path class="cls-8" d="M256.31,304.18c-.25-4.73-.55-10.42-.5-14.65h-.15c-1.16,4-2.57,8.21-4.28,12.89l-6,16.46h-3.32l-5.49-16.16c-1.61-4.78-3-9.16-3.92-13.19h-.1c-.1,4.23-.35,9.92-.66,15l-.9,14.55h-4.18l2.37-33.92h5.58l5.79,16.4c1.41,4.18,2.57,7.9,3.42,11.43h.15c.86-3.43,2.07-7.15,3.58-11.43l6-16.4h5.58l2.12,33.92h-4.28Z"/><path class="cls-9" d="M289.38,283.34v29.45c0,2.16.05,4.63.2,6.29h-4l-.2-4.23h-.1a9,9,0,0,1-8.3,4.78c-5.89,0-10.42-5-10.42-12.38-.05-8.1,5-13.09,10.92-13.09,3.72,0,6.24,1.77,7.35,3.73h.1V283.34ZM285,304.63a7.85,7.85,0,0,0-.2-1.86,6.51,6.51,0,0,0-6.39-5.13c-4.58,0-7.3,4-7.3,9.41,0,4.93,2.41,9,7.2,9a6.67,6.67,0,0,0,6.49-5.29,7.72,7.72,0,0,0,.2-1.91Z"/><path class="cls-10" d="M296.73,301.31c0-2.52-.05-4.58-.21-6.59h3.93l.25,4h.1a9,9,0,0,1,8.05-4.58c3.38,0,8.61,2,8.61,10.37v14.55H313V305c0-3.92-1.46-7.19-5.63-7.19a6.28,6.28,0,0,0-5.94,4.53,6.39,6.39,0,0,0-.3,2.06v14.65h-4.43Z"/></g></g></svg>